<svg xmlns="http://www.w3.org/2000/svg" viewBox="0 0 445.5 470">
    <path fill="#bc94ff" d="M79.8 167.7C93.4 118.5 148.6 73.9 239.4 38.9 275.8 24.9 311.4 14.9 336.8 8.7 334.4 7.1 331.8 5.5 329.4 3.9 300.2 9.7 251.6 20.7 201.2 38.1 127.8 63.5 35.8 107.7 13 174.5-15.4 257.5 67.2 356.3 258.4 468.3 281.8 462.7 303.8 453.7 324 442.1 140 339.5 57.8 247.3 79.8 167.7"/>
    <path fill="#bc94ff" d="M143.8 145.5C157 103.3 206 66.5 285.6 39.3 309.6 31.1 333.2 24.7 352.6 20.3 349.2 17.7 346 15.3 342.6 12.9 272.4 29.9 111.6 78.5 86.6 168.9 65.2 246.7 146.8 337.5 329.6 438.9Q353.3 424.5 373.4 405.3C198.6 304.5 121.4 217.3 143.8 145.5"/>
  <path fill="#bc94ff" d="M203 135.1C214.4 98.5 256 66.9 323.2 43.7 338 38.5 352.8 34.3 366 30.9L358.2 24.3C291.2 39.7 172.8 76.3 150.8 146.7 129 216.5 205.4 302.1 377.8 401.3 387.6 391.5 396.8 380.7 404.8 369.3 250.8 277.5 183 198.9 203 135.1"/>
  <path fill="#bc94ff" d="M260 128.3C272.8 84.9 329.8 58.5 379.2 43.5 376.4 40.7 373.4 37.9 370.6 35.1 313.2 49.5 227.2 80.1 210 136.1 199.6 169.9 215.2 208.7 256.6 251.7 290.2 286.5 341 324.3 408.2 364.5Q420.5 346.5 429.8 326.1C300.8 248.9 244 182.5 260 128.3"/>
  <path fill="#bc94ff" d="M310.6 122.5C319.4 91.7 354.6 70.9 391.8 57.3 389 54.1 386.4 50.9 383.4 47.9 335.2 62.5 279.2 87.9 266.8 129.3 257.6 160.5 274.4 196.7 316.8 237.1 344.4 263.3 382.8 291.3 431.8 320.9 437 308.5 441.4 295.7 444.6 282.5 343.2 220.1 298.2 166.5 310.6 122.5"/>
    <path fill="#fff" d="M326 2.1C325 1.5 323.8.9 322.6.1 292.8 6.1 246.2 17.1 198 33.7 91 70.5 24.6 118.7 6 173.1-22.8 257.7 59.4 357.5 250.4 469.9 251.8 469.7 253 469.3 254.4 469.1-285.4 152.3 196 28.3 326 2.1M13 174.5C35.8 107.7 127.8 63.5 201.2 38.3 251.6 20.9 300.2 9.9 329.4 4.1 328.4 3.5 327.2 2.7 326 2.1 196 28.3-285.4 152.3 254.4 469.1 255.8 468.9 257 468.5 258.4 468.1 67.2 356.3-15.4 257.5 13 174.5M86.8 168.7C111.8 78.3 272.4 29.7 342.8 12.7 340.8 11.3 339 10.1 337 8.7 311.6 14.9 276 24.9 239.6 38.9 148.8 73.9 93.6 118.3 80 167.7 57.8 247.3 140 339.5 324.2 441.9 326 440.9 328 439.7 329.8 438.7 147 337.3 65.2 246.5 86.8 168.7M150.6 146.5C172.6 76.3 291 39.5 358 24.1 356.2 22.7 354.6 21.3 352.8 19.9 333.2 24.5 309.8 30.7 285.8 38.9 206 66.5 157 103.3 143.8 145.5 121.4 217.3 198.6 304.5 373.4 405.3 374.8 403.9 376.2 402.7 377.6 401.3 205.2 301.9 128.8 216.3 150.6 146.5M256.4 251.7C215 208.7 199.4 169.9 209.8 136.1 227.2 80.1 313.2 49.5 370.4 35.1 368.8 33.7 367.4 32.3 365.8 30.9 352.6 34.3 337.8 38.5 323 43.7 255.8 66.9 214.2 98.5 202.8 135.1 183 199.1 250.8 277.5 404.6 369.3 405.6 367.7 406.8 366.3 407.8 364.7 340.6 324.3 289.8 286.5 256.4 251.7M267 129.3C279.2 87.9 335.2 62.5 383.6 47.9 382.2 46.3 380.8 44.9 379.4 43.5 330 58.5 273.2 84.9 260.2 128.3 244.2 182.5 301 248.9 429.6 326.3 430.4 324.5 431.2 322.9 431.8 321.1 382.8 291.5 344.4 263.5 316.8 237.3 274.4 196.7 257.6 160.5 267 129.3M393.8 59.7C393.2 58.9 392.6 58.1 391.8 57.5 354.6 71.1 319.4 91.9 310.6 122.7 298.2 166.7 343.2 220.3 444.6 282.7 444.8 281.7 445 280.7 445.4 279.7 240.4 152.9 312.6 89.3 393.8 59.7"/>
</svg>